<svg width="30" height="30" viewBox="0 0 30 30" fill="none" xmlns="http://www.w3.org/2000/svg">
<rect width="30" height="30" rx="7" fill="#5856D6"/>
<path d="M14.9927 22.4933C19.2642 22.4933 22.7899 18.9676 22.7899 14.7037C22.7899 10.4397 19.2567 6.91406 14.9852 6.91406C10.7213 6.91406 7.20312 10.4397 7.20312 14.7037C7.20312 18.9676 10.7288 22.4933 14.9927 22.4933ZM14.8119 16.2556C14.3223 16.2556 14.0511 16.0296 14.0511 15.5776V15.4947C14.0511 14.7866 14.4579 14.3873 15.0153 13.9955C15.6783 13.536 16.0022 13.2874 16.0022 12.8052C16.0022 12.2854 15.603 11.9389 14.9852 11.9389C14.5332 11.9389 14.2017 12.1649 13.9531 12.5491C13.7121 12.8203 13.5991 13.0539 13.147 13.0539C12.7779 13.0539 12.4766 12.8128 12.4766 12.4361C12.4766 12.2854 12.5067 12.1498 12.5594 12.0142C12.808 11.2759 13.7121 10.6733 15.0605 10.6733C16.4618 10.6733 17.6445 11.4191 17.6445 12.7299C17.6445 13.6339 17.1473 14.0859 16.3638 14.5907C15.8666 14.9146 15.5804 15.1858 15.5578 15.5926C15.5578 15.6152 15.5502 15.6529 15.5502 15.683C15.5276 16.007 15.2489 16.2556 14.8119 16.2556ZM14.8044 18.6663C14.2921 18.6663 13.8703 18.2972 13.8703 17.7999C13.8703 17.3027 14.2846 16.9336 14.8044 16.9336C15.3167 16.9336 15.731 17.3027 15.731 17.7999C15.731 18.3047 15.3092 18.6663 14.8044 18.6663Z" fill="white"/>
</svg>
