<svg width="20" height="20" viewBox="0 0 20 20" fill="none" xmlns="http://www.w3.org/2000/svg">
<path d="M8.37891 4.85017L13.2631 9.62765C13.4389 9.79715 13.5205 9.98549 13.5205 10.2052C13.5205 10.4249 13.4326 10.6258 13.2631 10.7891L8.37891 15.5603C8.23451 15.6984 8.06501 15.7737 7.85784 15.7737C7.43722 15.7737 7.11077 15.4473 7.11077 15.0329C7.11077 14.832 7.19238 14.6374 7.33677 14.493L11.7376 10.2115L7.33677 5.91741C7.19238 5.77302 7.11077 5.58468 7.11077 5.37751C7.11077 4.96317 7.43722 4.63672 7.85784 4.63672C8.05873 4.63672 8.23451 4.71205 8.37891 4.85017Z" fill="#AEAEB2"/>
</svg>
